<svg width="628" height="628" viewBox="0 0 628 628" fill="none" xmlns="http://www.w3.org/2000/svg">
<g clip-path="url(#clip0_2905_2936)">
<rect x="138" y="68" width="365" height="459" fill="white" stroke="black" stroke-width="8"/>
<rect x="113" y="92" width="366" height="459" fill="white" stroke="black" stroke-width="8"/>
<path d="M221.455 172.909H208.636C208.545 171.848 208.303 170.886 207.909 170.023C207.53 169.159 207 168.417 206.318 167.795C205.652 167.159 204.841 166.674 203.886 166.341C202.932 165.992 201.848 165.818 200.636 165.818C198.515 165.818 196.72 166.333 195.25 167.364C193.795 168.394 192.689 169.871 191.932 171.795C191.189 173.72 190.818 176.03 190.818 178.727C190.818 181.576 191.197 183.962 191.955 185.886C192.727 187.795 193.841 189.235 195.295 190.205C196.75 191.159 198.5 191.636 200.545 191.636C201.712 191.636 202.758 191.492 203.682 191.205C204.606 190.902 205.409 190.47 206.091 189.909C206.773 189.348 207.326 188.674 207.75 187.886C208.189 187.083 208.485 186.182 208.636 185.182L221.455 185.273C221.303 187.242 220.75 189.25 219.795 191.295C218.841 193.326 217.485 195.205 215.727 196.932C213.985 198.644 211.826 200.023 209.25 201.068C206.674 202.114 203.682 202.636 200.273 202.636C196 202.636 192.167 201.72 188.773 199.886C185.394 198.053 182.72 195.356 180.75 191.795C178.795 188.235 177.818 183.879 177.818 178.727C177.818 173.545 178.818 169.182 180.818 165.636C182.818 162.076 185.515 159.386 188.909 157.568C192.303 155.735 196.091 154.818 200.273 154.818C203.212 154.818 205.917 155.22 208.386 156.023C210.856 156.826 213.023 158 214.886 159.545C216.75 161.076 218.25 162.962 219.386 165.205C220.523 167.447 221.212 170.015 221.455 172.909ZM237.841 202H224.205L239.568 155.455H256.841L272.205 202H258.568L248.386 168.273H248.023L237.841 202ZM235.295 183.636H260.932V193.091H235.295V183.636ZM299.966 170C299.845 168.485 299.277 167.303 298.261 166.455C297.261 165.606 295.739 165.182 293.693 165.182C292.39 165.182 291.322 165.341 290.489 165.659C289.67 165.962 289.064 166.379 288.67 166.909C288.277 167.439 288.072 168.045 288.057 168.727C288.027 169.288 288.125 169.795 288.352 170.25C288.595 170.689 288.973 171.091 289.489 171.455C290.004 171.803 290.663 172.121 291.466 172.409C292.269 172.697 293.223 172.955 294.33 173.182L298.148 174C300.723 174.545 302.928 175.265 304.761 176.159C306.595 177.053 308.095 178.106 309.261 179.318C310.428 180.515 311.284 181.864 311.83 183.364C312.39 184.864 312.678 186.5 312.693 188.273C312.678 191.333 311.913 193.924 310.398 196.045C308.883 198.167 306.716 199.78 303.898 200.886C301.095 201.992 297.723 202.545 293.784 202.545C289.739 202.545 286.208 201.947 283.193 200.75C280.193 199.553 277.86 197.712 276.193 195.227C274.542 192.727 273.708 189.53 273.693 185.636H285.693C285.769 187.061 286.125 188.258 286.761 189.227C287.398 190.197 288.292 190.932 289.443 191.432C290.61 191.932 291.996 192.182 293.602 192.182C294.951 192.182 296.08 192.015 296.989 191.682C297.898 191.348 298.587 190.886 299.057 190.295C299.527 189.705 299.769 189.03 299.784 188.273C299.769 187.561 299.534 186.939 299.08 186.409C298.64 185.864 297.913 185.379 296.898 184.955C295.883 184.515 294.511 184.106 292.784 183.727L288.148 182.727C284.027 181.833 280.777 180.341 278.398 178.25C276.034 176.144 274.86 173.273 274.875 169.636C274.86 166.682 275.648 164.098 277.239 161.886C278.845 159.659 281.064 157.924 283.898 156.682C286.746 155.439 290.011 154.818 293.693 154.818C297.451 154.818 300.701 155.447 303.443 156.705C306.186 157.962 308.299 159.735 309.784 162.023C311.284 164.295 312.042 166.955 312.057 170H299.966ZM317.5 202V155.455H351.045V165.636H330.136V173.636H349.318V183.818H330.136V191.818H350.955V202H317.5ZM203.091 247C202.97 245.485 202.402 244.303 201.386 243.455C200.386 242.606 198.864 242.182 196.818 242.182C195.515 242.182 194.447 242.341 193.614 242.659C192.795 242.962 192.189 243.379 191.795 243.909C191.402 244.439 191.197 245.045 191.182 245.727C191.152 246.288 191.25 246.795 191.477 247.25C191.72 247.689 192.098 248.091 192.614 248.455C193.129 248.803 193.788 249.121 194.591 249.409C195.394 249.697 196.348 249.955 197.455 250.182L201.273 251C203.848 251.545 206.053 252.265 207.886 253.159C209.72 254.053 211.22 255.106 212.386 256.318C213.553 257.515 214.409 258.864 214.955 260.364C215.515 261.864 215.803 263.5 215.818 265.273C215.803 268.333 215.038 270.924 213.523 273.045C212.008 275.167 209.841 276.78 207.023 277.886C204.22 278.992 200.848 279.545 196.909 279.545C192.864 279.545 189.333 278.947 186.318 277.75C183.318 276.553 180.985 274.712 179.318 272.227C177.667 269.727 176.833 266.53 176.818 262.636H188.818C188.894 264.061 189.25 265.258 189.886 266.227C190.523 267.197 191.417 267.932 192.568 268.432C193.735 268.932 195.121 269.182 196.727 269.182C198.076 269.182 199.205 269.015 200.114 268.682C201.023 268.348 201.712 267.886 202.182 267.295C202.652 266.705 202.894 266.03 202.909 265.273C202.894 264.561 202.659 263.939 202.205 263.409C201.765 262.864 201.038 262.379 200.023 261.955C199.008 261.515 197.636 261.106 195.909 260.727L191.273 259.727C187.152 258.833 183.902 257.341 181.523 255.25C179.159 253.144 177.985 250.273 178 246.636C177.985 243.682 178.773 241.098 180.364 238.886C181.97 236.659 184.189 234.924 187.023 233.682C189.871 232.439 193.136 231.818 196.818 231.818C200.576 231.818 203.826 232.447 206.568 233.705C209.311 234.962 211.424 236.735 212.909 239.023C214.409 241.295 215.167 243.955 215.182 247H203.091ZM219.352 242.636V232.455H259.807V242.636H245.807V279H233.352V242.636H219.352ZM292.108 232.455H304.744V262.273C304.744 265.818 303.896 268.886 302.199 271.477C300.517 274.053 298.169 276.045 295.153 277.455C292.138 278.848 288.638 279.545 284.653 279.545C280.638 279.545 277.123 278.848 274.108 277.455C271.093 276.045 268.744 274.053 267.062 271.477C265.396 268.886 264.562 265.818 264.562 262.273V232.455H277.199V261.182C277.199 262.621 277.517 263.909 278.153 265.045C278.79 266.167 279.669 267.045 280.79 267.682C281.926 268.318 283.214 268.636 284.653 268.636C286.108 268.636 287.396 268.318 288.517 267.682C289.638 267.045 290.517 266.167 291.153 265.045C291.79 263.909 292.108 262.621 292.108 261.182V232.455ZM328.659 279H310.75V232.455H328.477C333.265 232.455 337.402 233.386 340.886 235.25C344.386 237.098 347.083 239.765 348.977 243.25C350.886 246.72 351.841 250.879 351.841 255.727C351.841 260.576 350.894 264.742 349 268.227C347.106 271.697 344.424 274.364 340.955 276.227C337.485 278.076 333.386 279 328.659 279ZM323.386 268.273H328.205C330.508 268.273 332.47 267.902 334.091 267.159C335.727 266.417 336.97 265.136 337.818 263.318C338.682 261.5 339.114 258.97 339.114 255.727C339.114 252.485 338.674 249.955 337.795 248.136C336.932 246.318 335.659 245.038 333.977 244.295C332.311 243.553 330.265 243.182 327.841 243.182H323.386V268.273ZM352.528 232.455H366.619L375.71 251.364H376.074L385.165 232.455H399.256L382.165 264.364V279H369.619V264.364L352.528 232.455Z" fill="black"/>
<rect x="175" y="304" width="244" height="105" fill="#FF6F2C"/>
<rect x="176" y="456" width="182" height="8" fill="#05060F"/>
<rect x="176" y="480" width="243" height="8" fill="#05060F"/>
<path d="M593.4 41.4003L593.65 40.4673C594.526 37.2708 595.493 34.7947 596.552 33.0392C597.629 31.2886 598.864 29.9725 600.257 29.0908C601.65 28.2092 603.233 27.4962 605.006 26.9518C606.337 26.5239 607.555 26.0368 608.663 25.4903C609.77 24.9438 610.716 24.2661 611.502 23.4569C612.292 22.6295 612.846 21.6212 613.165 20.4321C613.503 19.1698 613.498 17.9821 613.149 16.8691C612.8 15.756 612.182 14.8062 611.295 14.0194C610.426 13.2376 609.379 12.6825 608.153 12.354C606.964 12.0354 605.768 11.9992 604.565 12.2454C603.366 12.4734 602.292 13.0089 601.34 13.852C600.394 14.6768 599.692 15.8319 599.235 17.3173L588.039 14.3174C589.111 10.6831 590.798 7.89988 593.1 5.96772C595.407 4.01726 598.089 2.82426 601.147 2.38871C604.21 1.93487 607.397 2.15156 610.708 3.03879C614.349 4.01425 617.407 5.48067 619.882 7.43805C622.362 9.37714 624.094 11.6941 625.078 14.3891C626.062 17.084 626.125 20.0322 625.267 23.2336C624.694 25.374 623.827 27.181 622.667 28.6546C621.531 30.1148 620.16 31.3161 618.555 32.2584C616.954 33.1825 615.157 33.9264 613.163 34.4901C611.487 34.9626 610.058 35.5404 608.875 36.2234C607.71 36.9113 606.735 37.8069 605.949 38.91C605.182 40.0181 604.549 41.4661 604.05 43.254L603.8 44.187L593.4 41.4003ZM594.127 60.4184C592.298 59.9282 590.905 58.8688 589.949 57.2402C589.017 55.5982 588.802 53.8741 589.306 52.0679C589.768 50.2702 590.811 48.9026 592.435 47.9652C594.077 47.0326 595.812 46.8114 597.642 47.3016C599.38 47.7673 600.736 48.8169 601.71 50.4504C602.684 52.0839 602.94 53.7995 602.478 55.5972C602.136 56.7997 601.519 57.8207 600.628 58.6602C599.759 59.4863 598.75 60.0689 597.6 60.4079C596.456 60.7286 595.298 60.7321 594.127 60.4184Z" fill="#664EFF"/>
<path d="M27.966 612.196L27.4831 611.359C25.8423 608.479 24.7755 606.045 24.2827 604.055C23.8063 602.055 23.7489 600.251 24.1106 598.643C24.4722 597.035 25.0875 595.411 25.9564 593.772C26.5946 592.529 27.1119 591.323 27.5084 590.153C27.9049 588.984 28.0948 587.836 28.078 586.708C28.0517 585.564 27.7309 584.459 27.1153 583.393C26.4619 582.261 25.6183 581.425 24.5846 580.885C23.5509 580.344 22.4423 580.11 21.2586 580.181C20.0913 580.242 18.9582 580.59 17.8593 581.225C16.7931 581.84 15.9217 582.661 15.245 583.686C14.5589 584.694 14.1775 585.833 14.1009 587.102C14.0149 588.354 14.3355 589.667 15.0629 591.04L5.0248 596.836C3.21285 593.508 2.43763 590.347 2.69914 587.353C2.95118 584.343 4.00433 581.602 5.85857 579.132C7.70334 576.646 10.1101 574.545 13.0789 572.831C16.3429 570.947 19.5422 569.822 22.6767 569.455C25.8017 569.073 28.6649 569.486 31.2661 570.696C33.8674 571.906 35.9966 573.946 37.6538 576.817C38.7618 578.736 39.4268 580.626 39.6489 582.488C39.8779 584.324 39.7579 586.143 39.2891 587.944C38.8108 589.73 38.0659 591.526 37.0544 593.335C36.2037 594.854 35.6016 596.273 35.248 597.593C34.9109 598.903 34.8545 600.226 35.079 601.561C35.3198 602.887 35.896 604.359 36.8077 605.976L37.2906 606.812L27.966 612.196ZM41.9285 625.129C40.2883 626.076 38.5545 626.312 36.727 625.836C34.9065 625.334 33.5357 624.267 32.6146 622.634C31.6702 621.036 31.4406 619.331 31.9258 617.52C32.4275 615.7 33.4984 614.316 35.1386 613.369C36.6968 612.469 38.3978 612.253 40.2417 612.719C42.0855 613.185 43.4796 614.217 44.4241 615.815C45.0327 616.907 45.3186 618.065 45.2818 619.29C45.2519 620.488 44.9503 621.613 44.3771 622.666C43.7944 623.702 42.9782 624.523 41.9285 625.129Z" fill="#664EFF"/>
<rect x="4.19207" y="-0.653323" width="175" height="49" transform="matrix(0.589793 -0.807555 0.807564 0.58978 418.247 435.117)" fill="white" stroke="#05060F" stroke-width="6"/>
<rect x="5.58943" y="-0.871097" width="173" height="47" transform="matrix(0.589793 -0.807555 0.807564 0.58978 418.996 436.156)" fill="white" stroke="#05060F" stroke-width="8"/>
<mask id="mask0_2905_2936" style="mask-type:alpha" maskUnits="userSpaceOnUse" x="385" y="420" width="84" height="87">
<rect width="66" height="55" transform="matrix(0.589793 -0.807555 0.807564 0.58978 385 474)" fill="white"/>
</mask>
<g mask="url(#mask0_2905_2936)">
<path d="M408.166 483.997L420.419 430.475L459.874 459.289L412.618 487.248C410.35 488.59 407.578 486.566 408.166 483.997Z" fill="#FFE7D1" stroke="#05060F" stroke-width="8"/>
</g>
<path d="M521.589 294.129L534.86 275.959C542.515 265.478 557.217 263.187 567.698 270.841C578.179 278.496 580.47 293.198 572.815 303.679L559.545 321.849L521.589 294.129Z" fill="#4DC959" stroke="#05060F" stroke-width="8"/>
</g>
<defs>
<clipPath id="clip0_2905_2936">
<rect width="628" height="628" fill="white"/>
</clipPath>
</defs>
</svg>
